<svg xmlns="http://www.w3.org/2000/svg" xml:space="preserve" width="2000" height="1500" data-id="lg_VeKqa5VMFMxkcJXiGA" data-version="1" viewBox="0 0 2000 1500"><path fill="#c89050" stroke="transparent" d="M0 0h2000v1500H0z"/><g data-padding="20"><g transform="translate(-992.397 -709.613)scale(1.83442)"><rect width="226.091" height="559.35" x="859.391" y="235.505" fill="none" rx="0" ry="0" transform="translate(113.68 280.5)"/><path fill="#fff" d="M1078.727 955.7q-27.34 0-49.61-13.07-22.02-13.06-34.72-36.17-12.71-23.11-12.71-51.67v-22.98q0-1.94 1.94-1.94h56.14q1.94 0 1.94 2.66v22.26q0 18.15 10.4 29.65 10.41 11.49 26.62 11.49 15 0 25.89-12.46t10.89-28.68V608.46q0-1.94 1.94-1.94h55.65q1.94 0 1.94 2.42l.48 245.85q0 27.11-13.07 50.09-13.3 23.23-35.08 37.03-21.78 13.79-48.64 13.79"/></g><path fill="transparent" stroke="transparent" stroke-width="2.013" d="M772.585 187.5h454.83v1125h-454.83z"/></g></svg>